<svg xmlns="http://www.w3.org/2000/svg" width="24" height="24" viewBox="0 0 24 24" fill="none" stroke="currentColor" stroke-width="2" stroke-linecap="round" stroke-linejoin="round"><circle cx="12" cy="12" r="3"/><path d="M19.4 15a1.65 1.65 0 0 0 .33-1.82 1.65 1.65 0 0 0-1.51-1H17.9a8.53 8.53 0 0 1-1.27-2 1.65 1.65 0 0 0-1.51-1 1.65 1.65 0 0 0-1.51 1 8.53 8.53 0 0 1-1.27 2H6.55a1.65 1.65 0 0 0-1.51 1 1.65 1.65 0 0 0 .33 1.82 8.53 8.53 0 0 1 0 2.34 1.65 1.65 0 0 0-.33 1.82 1.65 1.65 0 0 0 1.51 1H6.1a8.53 8.53 0 0 1 1.27 2 1.65 1.65 0 0 0 1.51 1 1.65 1.65 0 0 0 1.51-1 8.53 8.53 0 0 1 1.27-2h1.27a1.65 1.65 0 0 0 1.51-1 1.65 1.65 0 0 0-.33-1.82 8.53 8.53 0 0 1 0-2.34z"/></svg>
