<svg xmlns="http://www.w3.org/2000/svg" width="24" height="24" viewBox="0 0 24 24" fill="none" stroke="#111111" stroke-width="2" stroke-linecap="round" stroke-linejoin="round"><circle cx="12" cy="12" r="3"/><path d="M19.4 15a7.9 7.9 0 0 0 .1-1l2-1.2-2-3.6-2.3.6a8.5 8.5 0 0 0-.8-.8l.6-2.3-3.6-2-1.2 2a7.9 7.9 0 0 0-1 0l-1.2-2-3.6 2 .6 2.3a8.5 8.5 0 0 0-.8.8L4.5 9.2l-2 3.6 2 1.2a7.9 7.9 0 0 0 .1 1l-2 1.2 2 3.6 2.3-.6c.25.29.51.55.8.8l-.6 2.3 3.6 2 1.2-2a7.9 7.9 0 0 0 1 0l1.2 2 3.6-2-.6-2.3c.29-.25.55-.51.8-.8l2.3.6 2-3.6-2-1.2z" opacity=".25"/></svg>